# xmcd CD database file
#
# Track frame offsets:
#	150
#	22961
#	41458
#	54866
#	74036
#	94614
#	111658
#	129957
#	147709
#	165093
#
# Disc length: 2289 seconds
#
# Revision: 0
# Processed by: cddbd v1.4PL0 Copyright (c) Steve Scherf et al.
# Submitted via: CDex 1.51
#
DISCID=8408ef0a
DTITLE=Roman - Jia Peng Fang
DYEAR=2003
DGENRE=New Age
TTITLE0=Musahi (Main Theme)
TTITLE1=Nuovo Cinema Paradise
TTITLE2=Tema D'Amore
TTITLE3=Deborah's Theme
TTITLE4=Romance
TTITLE5=Playing Love
TTITLE6=Toto's Alfedo
TTITLE7=Maléna
TTITLE8=Tre Volti Amore
TTITLE9=Musahi (Main Theme) - Reprise
EXTD=YEAR: 2003
EXTT0=
EXTT1=
EXTT2=
EXTT3=
EXTT4=
EXTT5=
EXTT6=
EXTT7=
EXTT8=
EXTT9=
PLAYORDER=
